<svg width="16" height="16" viewBox="0 0 16 16" fill="none" xmlns="http://www.w3.org/2000/svg">
<path d="M7 2.41421H2.33333C1.97971 2.41421 1.64057 2.55469 1.39052 2.80474C1.14048 3.05479 1 3.39393 1 3.74755V13.0809C1 13.4345 1.14048 13.7736 1.39052 14.0237C1.64057 14.2737 1.97971 14.4142 2.33333 14.4142H11.6667C12.0203 14.4142 12.3594 14.2737 12.6095 14.0237C12.8595 13.7736 13 13.4345 13 13.0809V8.41421M12 1.41421C12.2652 1.149 12.6249 1 13 1C13.3751 1 13.7348 1.149 14 1.41421C14.2652 1.67943 14.4142 2.03914 14.4142 2.41421C14.4142 2.78929 14.2652 3.149 14 3.41421L7.66667 9.74755L5 10.4142L5.66667 7.74755L12 1.41421Z" stroke="#383635" stroke-width="1.6" stroke-linecap="round" stroke-linejoin="round"/>
</svg>

